<mxfile host="app.diagrams.net" agent="Mozilla/5.0 (Windows NT 10.0; Win64; x64) AppleWebKit/537.36 (KHTML, like Gecko) Chrome/129.0.0.0 Safari/537.36" version="24.8.3">
  <diagram name="Страница — 1" id="PLsbrn37xf1wtGuixKVf">
    <mxGraphModel dx="1878" dy="1012" grid="1" gridSize="10" guides="1" tooltips="1" connect="1" arrows="1" fold="1" page="1" pageScale="1" pageWidth="827" pageHeight="1169" math="0" shadow="0">
      <root>
        <mxCell id="0" />
        <mxCell id="1" parent="0" />
        <mxCell id="WHvnlw6YlJqIaomOaeFl-2" value="" style="rounded=1;whiteSpace=wrap;html=1;" parent="1" vertex="1">
          <mxGeometry x="40" y="278" width="170" height="250" as="geometry" />
        </mxCell>
        <mxCell id="WHvnlw6YlJqIaomOaeFl-5" value="" style="verticalLabelPosition=bottom;verticalAlign=top;html=1;shape=mxgraph.basic.rect;fillColor2=none;strokeWidth=1;size=20;indent=5;" parent="1" vertex="1">
          <mxGeometry x="321" y="260" width="186" height="270" as="geometry" />
        </mxCell>
        <mxCell id="WHvnlw6YlJqIaomOaeFl-7" value="" style="shape=cylinder3;whiteSpace=wrap;html=1;boundedLbl=1;backgroundOutline=1;size=15;align=left;" parent="1" vertex="1">
          <mxGeometry x="620" y="269" width="190" height="252" as="geometry" />
        </mxCell>
        <mxCell id="WHvnlw6YlJqIaomOaeFl-8" value="&lt;font style=&quot;font-size: 15px;&quot;&gt;история просмотров reels за определенный&amp;nbsp;&lt;/font&gt;&lt;div style=&quot;font-size: 15px;&quot;&gt;&lt;font style=&quot;font-size: 15px;&quot;&gt;временной диапазон&lt;/font&gt;&lt;/div&gt;" style="text;html=1;align=center;verticalAlign=middle;resizable=0;points=[];autosize=1;strokeColor=none;fillColor=none;" parent="1" vertex="1">
          <mxGeometry x="249" y="140" width="330" height="50" as="geometry" />
        </mxCell>
        <mxCell id="WHvnlw6YlJqIaomOaeFl-9" value="A" style="text;html=1;align=center;verticalAlign=middle;resizable=0;points=[];autosize=1;strokeColor=none;fillColor=none;" parent="1" vertex="1">
          <mxGeometry x="110" y="230" width="30" height="30" as="geometry" />
        </mxCell>
        <mxCell id="WHvnlw6YlJqIaomOaeFl-11" value="B" style="text;html=1;align=center;verticalAlign=middle;resizable=0;points=[];autosize=1;strokeColor=none;fillColor=none;" parent="1" vertex="1">
          <mxGeometry x="395" y="228" width="30" height="30" as="geometry" />
        </mxCell>
        <mxCell id="WHvnlw6YlJqIaomOaeFl-12" value="C" style="text;html=1;align=center;verticalAlign=middle;resizable=0;points=[];autosize=1;strokeColor=none;fillColor=none;" parent="1" vertex="1">
          <mxGeometry x="680" y="230" width="30" height="30" as="geometry" />
        </mxCell>
        <mxCell id="WHvnlw6YlJqIaomOaeFl-13" value="&lt;font style=&quot;font-size: 17px;&quot;&gt;A - Фронтенд&lt;/font&gt;&lt;div style=&quot;font-size: 17px;&quot;&gt;&lt;font style=&quot;font-size: 17px;&quot;&gt;B - Backend&lt;/font&gt;&lt;/div&gt;&lt;div style=&quot;font-size: 17px;&quot;&gt;&lt;font style=&quot;font-size: 17px;&quot;&gt;C - Реляционная БД&amp;nbsp;&lt;/font&gt;&lt;/div&gt;&lt;div style=&quot;font-size: 17px;&quot;&gt;&lt;font style=&quot;font-size: 17px;&quot;&gt;postgresSQL&lt;/font&gt;&lt;/div&gt;" style="text;html=1;align=left;verticalAlign=middle;resizable=0;points=[];autosize=1;strokeColor=none;fillColor=none;" parent="1" vertex="1">
          <mxGeometry x="50" y="625" width="190" height="100" as="geometry" />
        </mxCell>
        <mxCell id="WHvnlw6YlJqIaomOaeFl-18" value="" style="endArrow=classic;startArrow=classic;html=1;rounded=0;entryX=-0.001;entryY=0.517;entryDx=0;entryDy=0;entryPerimeter=0;exitX=1.001;exitY=0.486;exitDx=0;exitDy=0;exitPerimeter=0;" parent="1" source="WHvnlw6YlJqIaomOaeFl-2" target="WHvnlw6YlJqIaomOaeFl-5" edge="1">
          <mxGeometry width="50" height="50" relative="1" as="geometry">
            <mxPoint x="230" y="420" as="sourcePoint" />
            <mxPoint x="280" y="370" as="targetPoint" />
          </mxGeometry>
        </mxCell>
        <mxCell id="WHvnlw6YlJqIaomOaeFl-21" value="&lt;font style=&quot;font-size: 14px;&quot;&gt;1&lt;/font&gt;" style="edgeLabel;html=1;align=center;verticalAlign=middle;resizable=0;points=[];" parent="WHvnlw6YlJqIaomOaeFl-18" vertex="1" connectable="0">
          <mxGeometry x="-0.0424" y="1" relative="1" as="geometry">
            <mxPoint as="offset" />
          </mxGeometry>
        </mxCell>
        <mxCell id="WHvnlw6YlJqIaomOaeFl-22" value="&lt;font style=&quot;font-size: 14px;&quot;&gt;1&lt;/font&gt;" style="edgeLabel;html=1;align=center;verticalAlign=middle;resizable=0;points=[];" parent="WHvnlw6YlJqIaomOaeFl-18" vertex="1" connectable="0">
          <mxGeometry x="-0.0055" y="-1" relative="1" as="geometry">
            <mxPoint as="offset" />
          </mxGeometry>
        </mxCell>
        <mxCell id="WHvnlw6YlJqIaomOaeFl-19" value="" style="endArrow=classic;startArrow=classic;html=1;rounded=0;entryX=-0.001;entryY=0.517;entryDx=0;entryDy=0;entryPerimeter=0;exitX=1.001;exitY=0.486;exitDx=0;exitDy=0;exitPerimeter=0;" parent="1" edge="1">
          <mxGeometry width="50" height="50" relative="1" as="geometry">
            <mxPoint x="507" y="402.7" as="sourcePoint" />
            <mxPoint x="618" y="402.7" as="targetPoint" />
          </mxGeometry>
        </mxCell>
        <mxCell id="WHvnlw6YlJqIaomOaeFl-23" value="&lt;font style=&quot;font-size: 14px;&quot;&gt;2&lt;/font&gt;" style="edgeLabel;html=1;align=center;verticalAlign=middle;resizable=0;points=[];" parent="WHvnlw6YlJqIaomOaeFl-19" vertex="1" connectable="0">
          <mxGeometry x="-0.0804" y="-1" relative="1" as="geometry">
            <mxPoint as="offset" />
          </mxGeometry>
        </mxCell>
        <mxCell id="WHvnlw6YlJqIaomOaeFl-26" value="&lt;font style=&quot;font-size: 17px;&quot;&gt;1)&amp;nbsp;&lt;span style=&quot;text-align: center;&quot;&gt;https (GET, POST запросы)&lt;/span&gt;&lt;/font&gt;&lt;div style=&quot;font-size: 17px;&quot;&gt;&lt;span style=&quot;text-align: center;&quot;&gt;&lt;font style=&quot;font-size: 17px;&quot;&gt;2) ODBC&lt;/font&gt;&lt;/span&gt;&lt;/div&gt;" style="text;html=1;align=left;verticalAlign=middle;resizable=0;points=[];autosize=1;strokeColor=none;fillColor=none;" parent="1" vertex="1">
          <mxGeometry x="270" y="625" width="260" height="50" as="geometry" />
        </mxCell>
        <mxCell id="WHvnlw6YlJqIaomOaeFl-28" value="" style="shape=table;startSize=0;container=1;collapsible=0;childLayout=tableLayout;fontSize=16;" parent="1" vertex="1">
          <mxGeometry x="57.5" y="380" width="135" height="140" as="geometry" />
        </mxCell>
        <mxCell id="WHvnlw6YlJqIaomOaeFl-29" value="" style="shape=tableRow;horizontal=0;startSize=0;swimlaneHead=0;swimlaneBody=0;strokeColor=inherit;top=0;left=0;bottom=0;right=0;collapsible=0;dropTarget=0;fillColor=none;points=[[0,0.5],[1,0.5]];portConstraint=eastwest;fontSize=16;" parent="WHvnlw6YlJqIaomOaeFl-28" vertex="1">
          <mxGeometry width="135" height="47" as="geometry" />
        </mxCell>
        <mxCell id="WHvnlw6YlJqIaomOaeFl-30" value="" style="shape=partialRectangle;html=1;whiteSpace=wrap;connectable=0;strokeColor=inherit;overflow=hidden;fillColor=none;top=0;left=0;bottom=0;right=0;pointerEvents=1;fontSize=16;" parent="WHvnlw6YlJqIaomOaeFl-29" vertex="1">
          <mxGeometry width="45" height="47" as="geometry">
            <mxRectangle width="45" height="47" as="alternateBounds" />
          </mxGeometry>
        </mxCell>
        <mxCell id="WHvnlw6YlJqIaomOaeFl-31" value="" style="shape=partialRectangle;html=1;whiteSpace=wrap;connectable=0;strokeColor=inherit;overflow=hidden;fillColor=none;top=0;left=0;bottom=0;right=0;pointerEvents=1;fontSize=16;" parent="WHvnlw6YlJqIaomOaeFl-29" vertex="1">
          <mxGeometry x="45" width="45" height="47" as="geometry">
            <mxRectangle width="45" height="47" as="alternateBounds" />
          </mxGeometry>
        </mxCell>
        <mxCell id="WHvnlw6YlJqIaomOaeFl-32" value="" style="shape=partialRectangle;html=1;whiteSpace=wrap;connectable=0;strokeColor=inherit;overflow=hidden;fillColor=none;top=0;left=0;bottom=0;right=0;pointerEvents=1;fontSize=16;" parent="WHvnlw6YlJqIaomOaeFl-29" vertex="1">
          <mxGeometry x="90" width="45" height="47" as="geometry">
            <mxRectangle width="45" height="47" as="alternateBounds" />
          </mxGeometry>
        </mxCell>
        <mxCell id="WHvnlw6YlJqIaomOaeFl-33" value="" style="shape=tableRow;horizontal=0;startSize=0;swimlaneHead=0;swimlaneBody=0;strokeColor=inherit;top=0;left=0;bottom=0;right=0;collapsible=0;dropTarget=0;fillColor=none;points=[[0,0.5],[1,0.5]];portConstraint=eastwest;fontSize=16;" parent="WHvnlw6YlJqIaomOaeFl-28" vertex="1">
          <mxGeometry y="47" width="135" height="46" as="geometry" />
        </mxCell>
        <mxCell id="WHvnlw6YlJqIaomOaeFl-34" value="" style="shape=partialRectangle;html=1;whiteSpace=wrap;connectable=0;strokeColor=inherit;overflow=hidden;fillColor=none;top=0;left=0;bottom=0;right=0;pointerEvents=1;fontSize=16;" parent="WHvnlw6YlJqIaomOaeFl-33" vertex="1">
          <mxGeometry width="45" height="46" as="geometry">
            <mxRectangle width="45" height="46" as="alternateBounds" />
          </mxGeometry>
        </mxCell>
        <mxCell id="WHvnlw6YlJqIaomOaeFl-35" value="" style="shape=partialRectangle;html=1;whiteSpace=wrap;connectable=0;strokeColor=inherit;overflow=hidden;fillColor=none;top=0;left=0;bottom=0;right=0;pointerEvents=1;fontSize=16;" parent="WHvnlw6YlJqIaomOaeFl-33" vertex="1">
          <mxGeometry x="45" width="45" height="46" as="geometry">
            <mxRectangle width="45" height="46" as="alternateBounds" />
          </mxGeometry>
        </mxCell>
        <mxCell id="WHvnlw6YlJqIaomOaeFl-36" value="" style="shape=partialRectangle;html=1;whiteSpace=wrap;connectable=0;strokeColor=inherit;overflow=hidden;fillColor=none;top=0;left=0;bottom=0;right=0;pointerEvents=1;fontSize=16;" parent="WHvnlw6YlJqIaomOaeFl-33" vertex="1">
          <mxGeometry x="90" width="45" height="46" as="geometry">
            <mxRectangle width="45" height="46" as="alternateBounds" />
          </mxGeometry>
        </mxCell>
        <mxCell id="WHvnlw6YlJqIaomOaeFl-37" value="" style="shape=tableRow;horizontal=0;startSize=0;swimlaneHead=0;swimlaneBody=0;strokeColor=inherit;top=0;left=0;bottom=0;right=0;collapsible=0;dropTarget=0;fillColor=none;points=[[0,0.5],[1,0.5]];portConstraint=eastwest;fontSize=16;" parent="WHvnlw6YlJqIaomOaeFl-28" vertex="1">
          <mxGeometry y="93" width="135" height="47" as="geometry" />
        </mxCell>
        <mxCell id="WHvnlw6YlJqIaomOaeFl-38" value="" style="shape=partialRectangle;html=1;whiteSpace=wrap;connectable=0;strokeColor=inherit;overflow=hidden;fillColor=none;top=0;left=0;bottom=0;right=0;pointerEvents=1;fontSize=16;" parent="WHvnlw6YlJqIaomOaeFl-37" vertex="1">
          <mxGeometry width="45" height="47" as="geometry">
            <mxRectangle width="45" height="47" as="alternateBounds" />
          </mxGeometry>
        </mxCell>
        <mxCell id="WHvnlw6YlJqIaomOaeFl-39" value="" style="shape=partialRectangle;html=1;whiteSpace=wrap;connectable=0;strokeColor=inherit;overflow=hidden;fillColor=none;top=0;left=0;bottom=0;right=0;pointerEvents=1;fontSize=16;" parent="WHvnlw6YlJqIaomOaeFl-37" vertex="1">
          <mxGeometry x="45" width="45" height="47" as="geometry">
            <mxRectangle width="45" height="47" as="alternateBounds" />
          </mxGeometry>
        </mxCell>
        <mxCell id="WHvnlw6YlJqIaomOaeFl-40" value="" style="shape=partialRectangle;html=1;whiteSpace=wrap;connectable=0;strokeColor=inherit;overflow=hidden;fillColor=none;top=0;left=0;bottom=0;right=0;pointerEvents=1;fontSize=16;" parent="WHvnlw6YlJqIaomOaeFl-37" vertex="1">
          <mxGeometry x="90" width="45" height="47" as="geometry">
            <mxRectangle width="45" height="47" as="alternateBounds" />
          </mxGeometry>
        </mxCell>
        <mxCell id="WHvnlw6YlJqIaomOaeFl-41" value="История просмотра&lt;div&gt;&lt;br&gt;&lt;/div&gt;" style="text;html=1;align=center;verticalAlign=middle;resizable=0;points=[];autosize=1;strokeColor=none;fillColor=none;" parent="1" vertex="1">
          <mxGeometry x="62.5" y="300" width="130" height="40" as="geometry" />
        </mxCell>
        <mxCell id="WHvnlw6YlJqIaomOaeFl-44" value="Выбрать дату" style="rounded=1;whiteSpace=wrap;html=1;fillColor=#d5e8d4;strokeColor=#82b366;" parent="1" vertex="1">
          <mxGeometry x="67.5" y="330" width="120" height="20" as="geometry" />
        </mxCell>
        <mxCell id="mYSCZKH5QNGIb94bGcKl-1" value="Структура Таблиц в БД:&lt;div&gt;&lt;li&gt;&lt;strong&gt;Таблица &lt;code&gt;users&lt;/code&gt;&lt;/strong&gt; – для хранения информации о пользователях&lt;/li&gt;&lt;li&gt;&lt;strong&gt;Таблица &lt;code&gt;reels&lt;/code&gt;&lt;/strong&gt; – хранит данные о каждом ролике&lt;/li&gt;&lt;li&gt;&lt;strong&gt;Таблица &lt;code&gt;views&lt;/code&gt;&lt;/strong&gt; – основная таблица для хранения истории просмотров&lt;/li&gt;&lt;li&gt;&lt;strong&gt;Таблица &lt;code&gt;dates_filter&lt;/code&gt;&lt;/strong&gt;&amp;nbsp;– для временных диапазонов.&lt;/li&gt;&lt;/div&gt;" style="text;html=1;align=left;verticalAlign=middle;resizable=0;points=[];autosize=1;strokeColor=none;fillColor=none;" vertex="1" parent="1">
          <mxGeometry x="50" y="760" width="440" height="90" as="geometry" />
        </mxCell>
        <mxCell id="mYSCZKH5QNGIb94bGcKl-2" value="&lt;br&gt;&lt;span style=&quot;color: rgb(0, 0, 0); font-family: Helvetica; font-size: 12px; font-style: normal; font-variant-ligatures: normal; font-variant-caps: normal; font-weight: 400; letter-spacing: normal; orphans: 2; text-indent: 0px; text-transform: none; widows: 2; word-spacing: 0px; -webkit-text-stroke-width: 0px; white-space: normal; background-color: rgb(251, 251, 251); text-decoration-thickness: initial; text-decoration-style: initial; text-decoration-color: initial; float: none; display: inline !important;&quot;&gt;ТАБЛИЦЫ:&lt;/span&gt;&lt;br style=&quot;forced-color-adjust: none; color: rgb(0, 0, 0); font-family: Helvetica; font-size: 12px; font-style: normal; font-variant-ligatures: normal; font-variant-caps: normal; font-weight: 400; letter-spacing: normal; orphans: 2; text-indent: 0px; text-transform: none; widows: 2; word-spacing: 0px; -webkit-text-stroke-width: 0px; white-space: normal; background-color: rgb(251, 251, 251); text-decoration-thickness: initial; text-decoration-style: initial; text-decoration-color: initial;&quot;&gt;&lt;span style=&quot;color: rgb(0, 0, 0); font-family: Helvetica; font-size: 12px; font-style: normal; font-variant-ligatures: normal; font-variant-caps: normal; font-weight: 400; letter-spacing: normal; orphans: 2; text-indent: 0px; text-transform: none; widows: 2; word-spacing: 0px; -webkit-text-stroke-width: 0px; white-space: normal; background-color: rgb(251, 251, 251); text-decoration-thickness: initial; text-decoration-style: initial; text-decoration-color: initial; float: none; display: inline !important;&quot;&gt;1) users&lt;/span&gt;&lt;div style=&quot;forced-color-adjust: none; color: rgb(0, 0, 0); font-family: Helvetica; font-size: 12px; font-style: normal; font-variant-ligatures: normal; font-variant-caps: normal; font-weight: 400; letter-spacing: normal; orphans: 2; text-indent: 0px; text-transform: none; widows: 2; word-spacing: 0px; -webkit-text-stroke-width: 0px; white-space: normal; background-color: rgb(251, 251, 251); text-decoration-thickness: initial; text-decoration-style: initial; text-decoration-color: initial;&quot;&gt;2) reels&lt;/div&gt;&lt;div style=&quot;forced-color-adjust: none; color: rgb(0, 0, 0); font-family: Helvetica; font-size: 12px; font-style: normal; font-variant-ligatures: normal; font-variant-caps: normal; font-weight: 400; letter-spacing: normal; orphans: 2; text-indent: 0px; text-transform: none; widows: 2; word-spacing: 0px; -webkit-text-stroke-width: 0px; white-space: normal; background-color: rgb(251, 251, 251); text-decoration-thickness: initial; text-decoration-style: initial; text-decoration-color: initial;&quot;&gt;3)&amp;nbsp;views&lt;/div&gt;&lt;div style=&quot;forced-color-adjust: none; color: rgb(0, 0, 0); font-family: Helvetica; font-size: 12px; font-style: normal; font-variant-ligatures: normal; font-variant-caps: normal; font-weight: 400; letter-spacing: normal; orphans: 2; text-indent: 0px; text-transform: none; widows: 2; word-spacing: 0px; -webkit-text-stroke-width: 0px; white-space: normal; background-color: rgb(251, 251, 251); text-decoration-thickness: initial; text-decoration-style: initial; text-decoration-color: initial;&quot;&gt;4)&amp;nbsp;dates_filter&lt;/div&gt;&lt;div&gt;&lt;br/&gt;&lt;/div&gt;" style="text;html=1;align=left;verticalAlign=middle;resizable=0;points=[];autosize=1;strokeColor=none;fillColor=none;" vertex="1" parent="1">
          <mxGeometry x="680" y="360" width="100" height="110" as="geometry" />
        </mxCell>
        <mxCell id="mYSCZKH5QNGIb94bGcKl-3" value="&lt;font style=&quot;font-size: 13px;&quot;&gt;Контроллеры&amp;nbsp;&lt;/font&gt;&lt;div style=&quot;font-size: 13px;&quot;&gt;&lt;font style=&quot;font-size: 13px;&quot;&gt;для обработки&amp;nbsp;&lt;/font&gt;&lt;/div&gt;&lt;div style=&quot;font-size: 13px;&quot;&gt;&lt;font style=&quot;font-size: 13px;&quot;&gt;HTTP-запросов&lt;/font&gt;&lt;/div&gt;" style="text;html=1;align=left;verticalAlign=middle;resizable=0;points=[];autosize=1;strokeColor=none;fillColor=none;" vertex="1" parent="1">
          <mxGeometry x="360" y="373" width="120" height="60" as="geometry" />
        </mxCell>
      </root>
    </mxGraphModel>
  </diagram>
</mxfile>
